<svg xmlns="http://www.w3.org/2000/svg" xmlns:xlink="http://www.w3.org/1999/xlink" viewBox="0 0 355.31 373.45"><defs><style>.cls-1{fill:none;}.cls-2{fill:#b01e55;}.cls-3{fill:#ed6123;}.cls-4{fill:#de8e26;}.cls-5{fill:#a22277;}.cls-6{fill:#ebae20;}.cls-7{fill:#db1d45;}.cls-8{fill:#d61965;}.cls-9{fill:#ee4723;}.cls-10{fill:#e11c45;}.cls-11{fill:#e92e25;}.cls-12{fill:#c01d69;}.cls-13{fill:#2a4a9e;}.cls-14{fill:#582d89;}.cls-15{fill:#84277f;}.cls-16{fill:#f26e21;}.cls-17{fill:#6b2b84;}.cls-18{fill:#f6911e;}.cls-19{fill:#d7d624;}.cls-20{fill:#f9a11b;}.cls-21{fill:#eebb1c;}.cls-22{fill:#51b448;}.cls-23{fill:#057293;}.cls-24{fill:#2a6198;}.cls-25{fill:#3b6552;}.cls-26{fill:url(#linear-gradient);}.cls-27{fill:#75ba43;}.cls-28{fill:#d2cd28;}.cls-29{fill:#54b848;}.cls-30{fill:url(#linear-gradient-2);}.cls-31{fill:#26ab7f;}.cls-32{fill:#078ab7;}.cls-33{fill:#0090bc;}.cls-34{fill:#326d9e;}.cls-35{fill:#c11a6e;}.cls-36{fill:#003159;}.cls-37{fill:#e22b60;}.cls-38{fill:#cc196a;}.cls-39{fill:#ef3a3a;}.cls-40{fill:#872e87;}.cls-41{fill:#7a297c;}.cls-42{fill:#58388c;}.cls-43{fill:#239bb7;}.cls-44{fill:#335796;}.cls-45{fill:#1595b7;}.cls-46{fill:#47b238;}.cls-47{fill:#593b93;}</style><linearGradient id="linear-gradient" x1="484.77" y1="29.17" x2="523.69" y2="29.17" gradientTransform="translate(-261.03 293.74) rotate(-21.79)" gradientUnits="userSpaceOnUse"><stop offset="0.25" stop-color="#4a8068"/><stop offset="0.53" stop-color="#3b6552"/><stop offset="0.78" stop-color="#243933"/></linearGradient><linearGradient id="linear-gradient-2" x1="508" y1="57.08" x2="524.05" y2="57.08" gradientTransform="translate(-261.03 293.74) rotate(-21.79)" gradientUnits="userSpaceOnUse"><stop offset="0.3" stop-color="#1b7052"/><stop offset="0.76" stop-color="#185346"/></linearGradient></defs><g id="Layer_2" data-name="Layer 2"><g id="Layer_1-2" data-name="Layer 1"><path class="cls-1" d="M196.35,67.68c-.53-.19-1.07-.37-1.61-.54l1.56.66Z"/><path class="cls-1" d="M202.38,70.4a40.77,40.77,0,0,0-6-2.72l0,.12Z"/><path class="cls-1" d="M175.36,21.46l-.69,1.66c1.27-.1,2.54-.18,3.82-.22Z"/><path class="cls-1" d="M130.37,39.63l-.09.21.21-.15Z"/><path class="cls-2" d="M137.75,111.55l-3,7.24,4.49,1.92A41.78,41.78,0,0,1,137.75,111.55Z"/><path class="cls-3" d="M194.74,67.14,162.11,53.2l-9.62,23a41.91,41.91,0,0,1,12.92-7.75C175.74,64.58,185.79,64.34,194.74,67.14Z"/><path class="cls-4" d="M222.52,92.67l4.89-11.57-25-10.7C210.79,75.05,217.8,82.68,222.52,92.67Z"/><path class="cls-5" d="M161,148l-7.64,17.35-23.78-10.09,3.7-10.63a16,16,0,0,0-2.07-14.68c-.23-.33-.48-.64-.73-.94l4.24-10.17,4.49,1.91a39.91,39.91,0,0,0,1.69,4.9A43.79,43.79,0,0,0,161,148Z"/><path class="cls-6" d="M202.38,70.4l25,10.7L240,51.28l-30.3-14L196.35,67.68A40.77,40.77,0,0,1,202.38,70.4Z"/><path class="cls-7" d="M145,84.88l-28.54-12.2-13.68,32.47,32,13.64,3-7.24A44.83,44.83,0,0,1,145,84.88Z"/><path class="cls-8" d="M95.46,102a83.82,83.82,0,0,0,.7,18.79l6.6-15.67Z"/><path class="cls-9" d="M145,84.88a43.07,43.07,0,0,1,7.51-8.65l9.62-23L130.49,39.69l-.21.15L116.44,72.68Z"/><path class="cls-10" d="M116.44,72.68l-10.7-4.58A82,82,0,0,0,97,91.27,83.08,83.08,0,0,0,95.46,102l7.3,3.12Z"/><path class="cls-11" d="M130.28,39.84a78.2,78.2,0,0,0-7.67,6.41A92.63,92.63,0,0,0,105.74,68.1l10.7,4.58Z"/><path class="cls-12" d="M134.73,118.79,130.49,129a16.21,16.21,0,0,0-12.45-5.9,16.46,16.46,0,0,0-4.81.73L97.66,128.6q-.93-3.88-1.5-7.78l6.6-15.67Z"/><path class="cls-13" d="M179.16,195.15a88.74,88.74,0,0,0,21.27-1.83A81.28,81.28,0,0,0,211.69,190l-25.75-10.92Z"/><path class="cls-14" d="M153.37,165.3l-9.44,21.46c2.31,1.08,4.66,2.07,7.06,3a90.55,90.55,0,0,0,28.17,5.44l6.78-16Z"/><path class="cls-15" d="M153.37,165.3l-9.45,21.46a84.48,84.48,0,0,1-20.58-13.59l6.25-18Z"/><path class="cls-16" d="M174.67,23.12a92.64,92.64,0,0,0-15.36,2.51c-1.85.47-3.69,1-5.53,1.53L146,30.25c-1.75.93-3.53,1.81-5.25,2.79a105.11,105.11,0,0,0-10.3,6.65L162.11,53.2Z"/><path class="cls-17" d="M161,148l-7.64,17.35,32.57,13.82,12.39-29.29L198,150A44.26,44.26,0,0,1,161,148Z"/><path class="cls-18" d="M194.74,67.14c.54.17,1.08.35,1.61.54l13.38-30.37L178.49,22.9c-1.28,0-2.55.12-3.82.22L162.11,53.2Z"/><path class="cls-19" d="M256.61,58.93c-.31-1-.63-1.92-1-2.89-2.42-7.4-4.89-14.79-7.18-22.23-.15-.49-.29-1-.44-1.47l-8,18.94Z"/><path class="cls-20" d="M213.56,28.6a5.19,5.19,0,0,1-1.83-.37c-4.19-1.47-6.84-2.66-10.35-3.27a128.23,128.23,0,0,0-14.93-2c-2.66-.16-5.31-.17-8-.08l31.24,14.41Z"/><path class="cls-21" d="M240,51.28l8-18.94C246.12,26,242.72,8.45,241.48.16c-.2-1.36-11.28,6-22.88,24.68a11.74,11.74,0,0,1-2.34,2.72,4.27,4.27,0,0,1-2.7,1l-3.83,8.71Z"/><path class="cls-22" d="M246.71,128.38l14.14-33L227.41,81.1l-4.89,11.57c.12.25.24.49.35.74a47.52,47.52,0,0,1,1.65,6l9.91,23.69Z"/><path class="cls-23" d="M222.33,185.25a92.67,92.67,0,0,0,21.11-16c.72-.71,1.81-1.79,2.49-2.55.1-.12.21-.22.31-.33l-13.38-5.71Z"/><path class="cls-24" d="M222.33,185.25l10.53-24.58L202.71,147.8a41.38,41.38,0,0,1-4.38,2l-12.39,29.29L211.69,190A86.05,86.05,0,0,0,222.33,185.25Z"/><polygon class="cls-25" points="234.43 123.13 245.7 150.31 246.71 128.38 234.43 123.13"/><path class="cls-26" d="M234.43,123.13l-10.19-25a52.29,52.29,0,0,1,.17,20.69,43.83,43.83,0,0,1-21.7,29l30.15,12.87,8.75-20.39Z"/><path class="cls-27" d="M270.74,99.61q-2.75-7.38-5.35-14.8l-4.54,10.58Z"/><path class="cls-28" d="M265.39,84.81q-4.53-12.89-8.78-25.88L240,51.28,227.41,81.1l33.44,14.29Z"/><path class="cls-29" d="M246.71,128.38l42.23,18.05-1.24-3.24c-1.8-4.75-3.72-9.46-5.51-14.21s-3.81-9.52-5.69-14.29q-3-7.51-5.76-15.08l-9.89-4.22Z"/><path class="cls-30" d="M232.86,160.67l13.38,5.71c.88-1,3.11-3.58,4.28-4.8l-8.91-21.3Z"/><path class="cls-31" d="M288.94,146.43l-42.23-18.05-5.1,11.9,8.91,21.3,3.37,8.06,55.43,23.66C301.45,178.32,295,162.26,288.94,146.43Z"/><path class="cls-32" d="M302.31,190.31,294.45,187l-40.56-17.32c.12.3,14,36.06,19.14,46.82L288.35,223Z"/><path class="cls-24" d="M288.35,223,273,216.46c.52,1.07.94,1.89,1.26,2.41,1.29,2.07,6,5.2,12.41,8a80.84,80.84,0,0,0,18.46,5.63c3,.52,5.82,1,8.44,1.34Z"/><path class="cls-33" d="M316.11,207.1c-1.62-2.89-4.37-9.22-5.93-12.14-.3-.55-.57-1.11-.86-1.66l-7-3-14,32.72,25.25,10.83c8.64,1.25,15,1.83,18.37,2.2C330.89,234.34,320.65,215.19,316.11,207.1Z"/><rect class="cls-1" x="247.32" y="128.03" width="0.02" transform="translate(47.65 322.18) rotate(-71.57)"/><rect class="cls-1" x="220.55" y="194.17" transform="translate(-33.4 342) rotate(-71.57)"/><rect class="cls-1" x="56.52" y="124.16" transform="translate(-77.65 148.88) rotate(-75.96)"/><rect class="cls-1" x="122.12" y="152.16" height="0.01" transform="translate(-64.19 210.09) rotate(-68.52)"/><polygon class="cls-1" points="168.31 133.12 168.33 133.08 168.31 133.07 168.29 133.12 168.31 133.12"/><rect class="cls-1" x="122.12" y="152.16" transform="translate(-68.59 193.34) rotate(-63.43)"/><path class="cls-34" d="M240,241.22l0,0-9.07-3.87v0a19.25,19.25,0,0,0,6,11.4l0,0A19.34,19.34,0,0,0,250,254c.62,0,1.24,0,1.87-.08a19.35,19.35,0,0,0,9.4-3.52l0,0Z"/><path class="cls-24" d="M269.39,232.7a19.41,19.41,0,0,0-18.65-17.54h-.23l-.42,0c-.62,0-1.24,0-1.87.09a19.32,19.32,0,0,0-15,9.64,19,19,0,0,0-2.35,6.64,19.89,19.89,0,0,0-.18,4.89c0,.21.07.41.09.62l.06.32L240,241.2l0,0,21.35,9.11A19.36,19.36,0,0,0,269.39,232.7Z"/><path class="cls-35" d="M57.39,124.54h0a126.42,126.42,0,0,0,3.16,17.58A16.13,16.13,0,0,1,67.38,138l12.44-3.84h0Z"/><rect class="cls-36" x="69.88" y="91.1" width="0.05" transform="translate(-38.63 128.61) rotate(-71.57)"/><polygon class="cls-36" points="37.13 77.09 37.08 77.07 37.07 77.11 37.11 77.13 37.13 77.09"/><path class="cls-37" d="M84.35,84.58A33.09,33.09,0,0,0,78.8,69.14h0A33.32,33.32,0,0,0,51.26,54.47q-1.57,0-3.18.15l-1.93.19-9,22.28,32.78,14h0l15.69,6.7Z"/><path class="cls-38" d="M69.91,91.08l-32.78-14,0,0-3.93,9.7L51,85.14h.25a2.61,2.61,0,0,1,2.59,2.36l3.34,35.06h0L69.9,91.12h0Z"/><path class="cls-11" d="M46.1,54.81,16.32,57.65a15.27,15.27,0,0,0-10.73,6L37.08,77.07l.05,0,9-22.28Z"/><path class="cls-8" d="M87.72,120,85.61,97.83v0l-15.69-6.7v0L57.17,122.55l0,.39c0,.54.12,1.07.18,1.6l22.43,9.57,9.63-3A95.93,95.93,0,0,1,87.72,120Z"/><path class="cls-39" d="M37.07,77.11v0L5.59,63.63l0,0A15.3,15.3,0,0,0,17.76,88.23a14.6,14.6,0,0,0,1.47-.07l13.9-1.32h0l3.93-9.7Z"/><rect class="cls-36" x="207.14" y="227.23" width="0.03" transform="translate(-96.82 273.55) rotate(-56.31)"/><path class="cls-13" d="M181.54,205.4c-1.33,0-2.64,0-4-.09l-3.2,7.91,32.79,14,12-29.6A94.12,94.12,0,0,1,190.56,205C187.52,205.27,184.53,205.4,181.54,205.4Z"/><polygon class="cls-36" points="174.34 213.2 174.32 213.23 174.37 213.25 174.38 213.22 174.34 213.2"/><path class="cls-14" d="M177.53,205.31A93.74,93.74,0,0,1,147.6,199c-1.73-.67-3.42-1.41-5.1-2.18l-.95,2.35,32.79,14,0,0,3.2-7.91Z"/><polygon class="cls-36" points="141.53 199.2 141.52 199.23 141.54 199.24 141.55 199.21 141.53 199.2"/><path class="cls-40" d="M141.52,199.23v0l-23.72-10.13,0,0-.28.83a16,16,0,0,1-15.08,10.86l-2.07,5.11a126.23,126.23,0,0,0,22.49,15.39,29.47,29.47,0,0,1,11.9-5.35h0l6.77-16.7Z"/><path class="cls-41" d="M102.43,200.8h-.22a16.11,16.11,0,0,1-15.08-10.32l-5.49-14.13-6.45-3.27-.83,2.07a125.39,125.39,0,0,0,26,30.75h0l2.07-5.11Z"/><path class="cls-42" d="M174.32,213.23l0,0-32.79-14v0l-6.77,16.7c1-.2,2-.37,3.09-.47a26.49,26.49,0,0,1,2.82-.14,29.39,29.39,0,0,1,26.3,16l0,0,7.36-18.16Z"/><path class="cls-32" d="M234.42,189.21a95.12,95.12,0,0,1-10.76,6.29l22.68,9.68c.31,0,.61-.1.91-.13a26.87,26.87,0,0,1,2.84-.14,29.39,29.39,0,0,1,4.42.36l2.51-6.21c-3-7.32-6-15.12-8.57-21.52A92.56,92.56,0,0,1,234.42,189.21Z"/><path class="cls-15" d="M142.48,196.85a95.07,95.07,0,0,1-22.39-14.36l-2.28,6.58,23.72,10.13h0l.95-2.35Z"/><path class="cls-27" d="M207.17,227.21l0,0,9.1,3.88h.05Z"/><path class="cls-43" d="M204.44,233.94c4-.75,7.95-1.7,11.81-2.82l-9.1-3.88Z"/><path class="cls-32" d="M257,199.1l0,0-2.51,6.21h0a30.44,30.44,0,0,1,5.59,1.37C259.13,204.25,258.09,201.7,257,199.1Z"/><path class="cls-44" d="M207.17,227.21l-32.79-14v0L167,231.41a28.48,28.48,0,0,1,1.68,4,123.92,123.92,0,0,0,12.82.69c4,0,7.94-.2,12-.57q5.57-.54,11-1.56h0l2.71-6.7h0Z"/><path class="cls-45" d="M223.66,195.5h0c-1.48.74-3,1.45-4.51,2.11h0l-12,29.6h0l9.13,3.9c1.53-.44,3-.9,4.54-1.4a29.55,29.55,0,0,1,25.5-24.53h0Z"/><path class="cls-35" d="M75.19,173.09h0l-2.84-1.44c.65,1.17,1.33,2.33,2,3.48l0,0h0l.83-2.07Z"/><polygon class="cls-27" points="304.39 82.17 304.38 82.1 293.5 108.97 293.53 108.98 304.39 82.17"/><rect class="cls-27" x="293.51" y="108.96" width="0.01" height="0.03" transform="translate(85.56 343.03) rotate(-68.75)"/><path class="cls-19" d="M289,67c-.49,0-1,0-1.46.07s-.73.1-1.09.16l15.19,6.48A15.33,15.33,0,0,0,289,67Z"/><path class="cls-27" d="M306.53,114.53A124.74,124.74,0,0,0,306,99.24l-1.63-17.07L293.53,109Z"/><path class="cls-29" d="M288.09,122.32l0,0L293.53,109l0,0Z"/><path class="cls-29" d="M286,117.16c.68,1.69,1.37,3.42,2.06,5.16L293.5,109l-12.84-5.47c1.09,2.84,2.16,5.61,3.21,8.29C284.59,113.58,285.3,115.37,286,117.16Z"/><path class="cls-27" d="M273.74,83.78l.12,1.23c1.46,4.06,2.89,8,4.31,11.84q1.24,3.38,2.49,6.64L293.5,109,304.38,82.1l-.12-1.23a15.21,15.21,0,0,0-2.6-7.17l-15.19-6.48A15.34,15.34,0,0,0,273.74,83.78Z"/><path class="cls-46" d="M293.53,109l-5.42,13.37c.5,1.27,1,2.54,1.49,3.82.89,2.36,1.84,4.78,2.76,7.12s1.85,4.7,2.75,7.08c.26.7.53,1.38.79,2.07l.44,1.16c.8,2.11,1.64,4.25,2.47,6.38v0l1.34.57v0a123.9,123.9,0,0,0,6.37-36Z"/><polygon class="cls-27" points="293.5 108.97 293.5 108.97 280.66 103.49 280.66 103.5 293.5 108.97"/><polygon class="cls-27" points="293.53 108.98 293.53 108.99 306.53 114.53 306.53 114.53 293.53 108.98"/><path class="cls-35" d="M118,132.3a7.25,7.25,0,0,0-2.08.32l-23,7.1h0l-4.87,1.51h0l-18,5.54A7,7,0,0,0,69,159.61l9.63,4.87,0,0h0l7.93,4a7,7,0,0,1,3.33,3.67l2.33,6,0,.05,3.47,8.92a6.82,6.82,0,0,0,6.46,4.42,7,7,0,0,0,4.67-1.77h0a6.89,6.89,0,0,0,1.88-2.88l.5-1.43v0l3.87-11.11v0l0-.1L121,151.7h0l3.53-10.16A7,7,0,0,0,118,132.3Z"/><path class="cls-14" d="M160,243.13a19.43,19.43,0,0,0-19.3-17.58c-.62,0-1.24,0-1.87.09a19.54,19.54,0,0,0-9.4,3.53l0,0c-.29.2-.58.4-.85.62a20.79,20.79,0,0,0-1.95,1.8l1.57.67L160,245.88c0-.45,0-.9,0-1.36S160,243.6,160,243.13Z"/><path class="cls-47" d="M128.16,232.28l-1.57-.67h0a20.51,20.51,0,0,0-1.74,2.11,19.35,19.35,0,0,0-3.52,13.09q.09.85.24,1.68v0a19.42,19.42,0,0,0,19.06,15.86c.62,0,1.24,0,1.87-.09A19.35,19.35,0,0,0,157.81,254l.2-.37a19.79,19.79,0,0,0,1.09-2.7c.07-.19.13-.38.19-.58a19.51,19.51,0,0,0,.73-4.48Z"/><path class="cls-13" d="M59.3,368.42c-4.39,3.35-8.93,5-13.15,5h-.24c-5.58,0-10.28-2.23-14.59-4.79a10,10,0,0,0-4.86-1.19,13.67,13.67,0,0,0-5.66,1.35,4.18,4.18,0,0,1-4.62-.24c-.08-.08-.24-.08-.48-.16-.08-.07-.08-.07-.16-.07a5.94,5.94,0,0,1-1.11-1.84,4.54,4.54,0,0,1,2.15-6.14l.24-.15A35.06,35.06,0,0,1,8,354.16a31.2,31.2,0,0,1-8-20.8,30.6,30.6,0,0,1,8-20.57A27,27,0,0,1,27.89,304a26.26,26.26,0,0,1,19.77,8.84,29.62,29.62,0,0,1,8.13,20.57,30.19,30.19,0,0,1-8.13,20.8,30.73,30.73,0,0,1-8.84,6.29l-1.84.72C40.33,363,43.36,364,45.91,364c2.31,0,4.54-.56,7.81-3a4.58,4.58,0,0,1,6.45.8A4.65,4.65,0,0,1,59.3,368.42ZM14.9,347.7a17.35,17.35,0,0,0,13,5.74,18.22,18.22,0,0,0,13.16-5.74,20.83,20.83,0,0,0,5.5-14.34,20.18,20.18,0,0,0-5.5-14.19,18,18,0,0,0-13.16-5.82,17.14,17.14,0,0,0-13,5.82,20.18,20.18,0,0,0-5.5,14.19A20.83,20.83,0,0,0,14.9,347.7Z"/><path class="cls-13" d="M115.89,327.06,102.74,358a4.72,4.72,0,0,1-.32.64.08.08,0,0,1-.08.08,2.12,2.12,0,0,1-.4.48.25.25,0,0,1-.16.08,2.12,2.12,0,0,1-.48.4c0,.08-.08.08-.08.16a2.1,2.1,0,0,1-.72.4.07.07,0,0,0-.07.08,2.4,2.4,0,0,0-.64.15h-.16a2.47,2.47,0,0,1-.8.08,2.21,2.21,0,0,1-.72-.08H98a1.12,1.12,0,0,0-.55-.15l-.08-.08h-.08a1.89,1.89,0,0,1-.72-.48v-.08c-.24-.08-.32-.24-.48-.4,0,0-.16,0-.16-.08a2.12,2.12,0,0,1-.4-.48.08.08,0,0,1-.08-.08,4.72,4.72,0,0,1-.32-.64L89.27,344.2,83.61,358a7.38,7.38,0,0,1-.4.64v.08l-.48.48a.08.08,0,0,1-.08.08l-.48.48a2.94,2.94,0,0,1-.71.48H81.3a.08.08,0,0,0-.08.08.86.86,0,0,0-.48.15h-.16a3,3,0,0,1-.8.08,2.47,2.47,0,0,1-.8-.08h-.23a1.12,1.12,0,0,0-.48-.15c-.08-.08-.08-.08-.16-.08a1.44,1.44,0,0,1-.72-.48c-.08,0-.08,0-.08-.08a3,3,0,0,0-.48-.4l-.16-.08c-.08-.16-.23-.32-.31-.48-.08,0-.08,0-.08-.08a4.47,4.47,0,0,0-.4-.64L62.81,327.06a4.12,4.12,0,0,1,2.31-5.5A4,4,0,0,1,70.38,324l9.4,21.44,5.58-13.31a4.26,4.26,0,0,1,3.91-2.55,4.1,4.1,0,0,1,3.9,2.55l5.66,13.31L108.24,324a4,4,0,0,1,5.34-2.39A4.2,4.2,0,0,1,115.89,327.06Z"/><path class="cls-13" d="M132.23,310.72a4.31,4.31,0,1,1-8.61,0v-1.67a4.31,4.31,0,1,1,8.61,0Zm0,14.43v31.08a4.31,4.31,0,0,1-8.61,0V325.15a4.31,4.31,0,1,1,8.61,0Z"/><path class="cls-13" d="M141.15,356.15v-47a4.38,4.38,0,0,1,4.39-4.39,4.44,4.44,0,0,1,4.46,4.39V336.7l16.34-16.34a4.47,4.47,0,0,1,6.21,0,4.32,4.32,0,0,1,0,6.22l-12,12,12.27,14.74a4.42,4.42,0,0,1-.63,6.22,4.31,4.31,0,0,1-6.14-.56l-11.72-14.19L150,349.14v7a4.43,4.43,0,0,1-4.46,4.38A4.37,4.37,0,0,1,141.15,356.15Z"/><path class="cls-29" d="M249,309.13v47a4.5,4.5,0,0,1-4.47,4.38,4.37,4.37,0,0,1-4.38-4.38V322.6l-11.48,15.94a4.35,4.35,0,0,1-3.58,1.83h-.16a4.51,4.51,0,0,1-3.67-1.83l-11.4-15.94v33.55a4.42,4.42,0,0,1-8.84,0v-47a4.43,4.43,0,0,1,4.38-4.39h.24a4.32,4.32,0,0,1,3.51,1.84l15.86,22,15.86-22a4.33,4.33,0,0,1,3.58-1.84h.08A4.56,4.56,0,0,1,249,309.13Z"/><path class="cls-29" d="M296.33,340.69v15.62a4.25,4.25,0,0,1-4.22,4.22,4.34,4.34,0,0,1-4.15-3.42,18.1,18.1,0,0,1-10.6,3.42,18.54,18.54,0,0,1-13.55-5.81,20.44,20.44,0,0,1-5.42-14,20.16,20.16,0,0,1,5.42-14,18.39,18.39,0,0,1,13.55-6,18.17,18.17,0,0,1,10.6,3.51,4.34,4.34,0,0,1,4.15-3.51,4.27,4.27,0,0,1,4.22,4.31Zm-8.45,0a11.68,11.68,0,0,0-3.11-8.21,9.85,9.85,0,0,0-7.41-3.27,9.61,9.61,0,0,0-7.41,3.27,11.68,11.68,0,0,0-3,8.21,12,12,0,0,0,3,8.21,10,10,0,0,0,7.41,3.11,10.3,10.3,0,0,0,7.41-3.11A12,12,0,0,0,287.88,340.69Z"/><path class="cls-29" d="M331.72,324.91a4.25,4.25,0,0,1-4.23,4.22,7.61,7.61,0,0,0-4.78,1.52,11.93,11.93,0,0,0-3.66,3.82,24.26,24.26,0,0,0-3.27,6.7v15.14a4.34,4.34,0,0,1-4.39,4.22,4.25,4.25,0,0,1-4.22-4.22v-31.4a4.19,4.19,0,0,1,4.22-4.15,4.28,4.28,0,0,1,4.39,4.15v.56a10.46,10.46,0,0,1,1.67-1.6,17.5,17.5,0,0,1,10-3.11A4.14,4.14,0,0,1,331.72,324.91Z"/><path class="cls-29" d="M355.31,325.07a4.49,4.49,0,0,1-4.46,4.38h-2v22.24a4.39,4.39,0,0,1,4.39,4.46,4.32,4.32,0,0,1-4.39,4.38,8.87,8.87,0,0,1-8.84-8.84V329.45h-2.32a4.39,4.39,0,0,1,0-8.77H340V309.13a4.39,4.39,0,0,1,4.46-4.39,4.32,4.32,0,0,1,4.38,4.39v11.55h2A4.44,4.44,0,0,1,355.31,325.07Z"/></g></g></svg>